<?xml version="1.0" encoding="utf-8"?>
<!-- Generator: Adobe Illustrator 26.5.0, SVG Export Plug-In . SVG Version: 6.00 Build 0)  -->
<svg version="1.1" id="Camada_1" xmlns="http://www.w3.org/2000/svg" xmlns:xlink="http://www.w3.org/1999/xlink" x="0px" y="0px"
	 viewBox="0 0 560.7 254" style="enable-background:new 0 0 560.7 254;" xml:space="preserve">
<style type="text/css">
	.st0{fill:#e1e1e6;}
</style>
<g id="Layer_1">
</g>
<g>
	<path class="st0" d="M78.7,234.3c-3.8,0.2-7.5,0.6-11.1,0.7c-6.6,0.2-13.3,0.4-19.9,0.3c-7.6-0.1-15.3-0.5-22.9-0.7
		c-0.7,0-0.8-0.5-0.9-0.9c-0.8-3.7-0.9-7.3-0.8-11c0-2.4,0.2-4.9,0.2-7.3c0-22.1,0-44.2,0-66.4c0-7.3,0.1-14.6,0.3-21.9
		C24,112,27.8,97.8,34.1,84.2c5.5-11.8,12.8-22.3,22-31.5c14.3-14.4,31.7-23.3,51.6-27.2c10.5-2.1,21.2-2.6,31.9-1.6
		c20.4,1.8,38.7,9.1,54.8,21.8c3.6,2.8,6.8,6,10.2,9c0.9,0.8,2.1,1.4,3.1,2.1c0.5,0.4,0.9,0.2,1.4-0.2c6.3-5.9,13-11.2,20.3-15.8
		c12.5-7.9,26.1-13,40.7-15.6c12.3-2.1,24.4-1.3,36.5,1.4c9.5,2.1,18.8,5,27.5,9.5c5,2.5,9.5,5.5,14,8.8c2.3,1.7,4.7,3.1,6.7,5.2
		c1.2,1.2,2.4,2.5,3.7,3.7c1.5,1.3,3.2,2.5,4.9,3.7c0.4,0.2,1.1,0.3,1.4,0.1c1.1-0.6,2.3-1.2,3.1-2.1c6.9-7.7,15.3-13.3,24.3-18
		c11.1-5.8,22.8-9.4,35.2-11.1c9.2-1.2,18.5-1.3,27.8-0.2c11.1,1.2,21.8,4,32,8.6c8.5,3.9,16.2,9,22.8,15.8c4.8,5,9.8,9.7,14.2,15
		c6.7,8,11.4,17.2,15.2,26.8c1.8,4.7,3.1,9.5,4.5,14.2c0.1,0.2,0.1,0.5,0.2,0.8c-0.4,0-0.7,0-1,0c-18,0-36,0-54,0
		c-0.7,0-1.1-0.2-1.4-0.8c-3.9-7.3-9.5-13-16.2-17.9c-7.7-5.6-16.4-8.5-25.9-8.9c-11.8-0.5-22.7,2.4-32.5,9.1
		c-12.1,8.2-19.4,19.8-21.4,34.2c-2.1,15,2.1,28.4,11.7,40.2c6.8,8.2,15.3,13.9,25.6,16.5c23,5.8,47.4-4.6,58.7-24.9
		c0.5-0.8,0.9-1.7,1.3-2.5c0.2-0.6,0.6-0.8,1.1-0.8c4.5,0,9,0,13.6,0c13.2,0,26.4,0,39.7,0c0.4,0,0.8,0,1.4,0
		c-0.8,2.7-1.4,5.4-2.1,7.9c-5,16.7-13.5,31.4-25.4,44.2c-13.1,14-29.1,23.2-47.7,27.8c-7.8,1.9-15.7,3-23.8,3.1
		c-18.1,0.3-35.2-3.4-51.5-11.3c-10.1-4.9-19.1-11.3-27.2-19.1c-13.7-13.3-22.6-29.3-27.2-47.7c-1.8-7.5-2.8-15.2-3.3-22.9
		c-0.4-6.1-0.7-12.2-2.5-18.1c-4-13-11.5-23.3-23.5-30.1c-7.3-4.2-15.3-6.3-23.6-6.6c-19.4-0.8-34.1,7.4-44.5,23.6
		c-5.2,8.1-7.3,17.1-7.4,26.5c-0.1,5.3,0,10.5-0.1,15.7c-0.1,6.6-0.2,13.1-0.2,19.7c0,8.2,0.2,16.6,0.2,24.8
		c0.1,10.4,0.2,20.7,0.1,31.1c0,4.7-0.2,9.2-0.4,14.1c-2.5,0.3-5,0.7-7.5,0.8c-5.9,0.1-11.7,0-17.6,0.1c-6.3,0-12.4,0.2-18.7,0.1
		c-3.5-0.1-6.9-0.5-10.4-0.8c-0.7-0.1-0.9-0.4-0.9-1.1c-0.2-12.1-0.5-24.1-0.6-36.2c-0.1-8.3-0.1-16.6-0.2-25c0-5,0-9.9,0.1-14.8
		c0-9.5,0.1-19.1,0.1-28.5c0-6.4-0.6-12.7-3.1-18.8c-6.3-14.9-16.8-25.6-32.5-30.2c-11.2-3.3-22.4-3.1-33.4,1.3
		c-5.8,2.4-10.8,5.9-15,10.4c-4.3,4.6-8.3,9.3-11.3,14.9c-2.9,5.3-4.5,11.1-4.5,17.2c0,8.3,0.2,16.6,0.2,24.9
		c0.1,9.2,0.2,18.4,0.2,27.6c0.1,11.9,0.2,23.7,0.1,35.6C79.3,219.2,78.9,226.7,78.7,234.3z"/>
	<path class="st0" d="M291.8,205.2c0.2,10.1,3.9,17.5,11.4,22.7c6.8,4.8,14.5,6.6,22.7,5.6c5.4-0.6,10.4-2.5,14.6-6.1
		c6.2-5.3,9.5-12.1,10.1-20.1c0.6-8.5-1.9-16-7.9-22.1c-9-9.2-24.2-11.4-35.6-5.1C296.9,185.7,292.1,194.7,291.8,205.2z"/>
</g>
</svg>
