<?xml version="1.0" encoding="utf-8"?>
<!-- Generator: Adobe Illustrator 26.5.0, SVG Export Plug-In . SVG Version: 6.00 Build 0)  -->
<svg version="1.1" id="Camada_1" xmlns="http://www.w3.org/2000/svg" xmlns:xlink="http://www.w3.org/1999/xlink" x="0px" y="0px"
	 viewBox="0 0 40 40" style="enable-background:new 0 0 40 40;" xml:space="preserve">
<style type="text/css">
	.st0{fill-rule:evenodd;clip-rule:evenodd;fill:#03DAC6;}
</style>
<path class="st0" d="M10.1,7.3c-2,0-3.5,1.8-3.4,3.7c0.1,1.8,0,4.2-0.6,6.2c-0.6,1.9-1.6,3.2-3.3,3.3v1.8c1.7,0.2,2.7,1.4,3.3,3.3
	c0.6,1.9,0.7,4.3,0.6,6.2c-0.1,1.9,1.4,3.7,3.4,3.7h20.6c2,0,3.5-1.8,3.4-3.7c-0.1-1.8,0-4.2,0.6-6.2c0.6-1.9,1.6-3.2,3.3-3.3v-1.8
	c-1.7-0.2-2.7-1.4-3.3-3.3c-0.6-1.9-0.7-4.3-0.6-6.2c0.1-1.9-1.4-3.7-3.4-3.7L10.1,7.3L10.1,7.3z M26.7,24.6c0,2.6-2,4.2-5.2,4.2
	h-5.5c-0.3,0-0.6-0.3-0.6-0.6l0,0V14.5c0-0.3,0.3-0.6,0.6-0.6h5.5c2.7,0,4.5,1.5,4.5,3.7c0,1.6-1.2,3-2.7,3.3v0.1
	C25.3,21.2,26.7,22.6,26.7,24.6L26.7,24.6z M20.9,15.8h-3.2v4.5h2.7c2.1,0,3.2-0.8,3.2-2.3C23.6,16.5,22.6,15.8,20.9,15.8L20.9,15.8
	z M17.7,22v4.9H21c2.1,0,3.3-0.9,3.3-2.5c0-1.6-1.2-2.4-3.4-2.4L17.7,22L17.7,22z"/>
</svg>
