<?xml version="1.0" encoding="utf-8"?>
<!-- Generator: Adobe Illustrator 26.5.0, SVG Export Plug-In . SVG Version: 6.00 Build 0)  -->
<svg version="1.1" id="Camada_1" xmlns="http://www.w3.org/2000/svg" xmlns:xlink="http://www.w3.org/1999/xlink" x="0px" y="0px"
	 viewBox="0 0 65 65" style="enable-background:new 0 0 65 65;" xml:space="preserve">
<style type="text/css">
	.st0{fill:none;stroke:#03DAC6;stroke-width:2;stroke-linecap:round;stroke-linejoin:round;}
</style>
<path class="st0" d="M17,17c0-2,0.8-4.1,2.3-5.5c1.5-1.5,3.5-2.3,5.5-2.3h7.8v15.5h-7.8c-2,0-4.1-0.8-5.5-2.3C17.8,21,17,19,17,17z"
	/>
<path class="st0" d="M32.5,9.2h7.8c1,0,2,0.2,3,0.6c0.9,0.4,1.8,0.9,2.5,1.6c0.7,0.7,1.3,1.6,1.6,2.5c0.4,0.9,0.6,2,0.6,3
	s-0.2,2-0.6,3c-0.4,0.9-0.9,1.8-1.6,2.5c-0.7,0.7-1.6,1.3-2.5,1.6c-0.9,0.4-2,0.6-3,0.6h-7.8V9.2z"/>
<path class="st0" d="M32.5,32.5c0-1,0.2-2,0.6-3c0.4-0.9,0.9-1.8,1.6-2.5c0.7-0.7,1.6-1.3,2.5-1.6c0.9-0.4,2-0.6,3-0.6s2,0.2,3,0.6
	s1.8,0.9,2.5,1.6c0.7,0.7,1.3,1.6,1.6,2.5c0.4,0.9,0.6,2,0.6,3c0,1-0.2,2-0.6,3s-0.9,1.8-1.6,2.5c-0.7,0.7-1.6,1.3-2.5,1.6
	c-0.9,0.4-2,0.6-3,0.6s-2-0.2-3-0.6c-0.9-0.4-1.8-0.9-2.5-1.6c-0.7-0.7-1.3-1.6-1.6-2.5C32.7,34.5,32.5,33.5,32.5,32.5L32.5,32.5z"
	/>
<path class="st0" d="M17,48c0-2,0.8-4.1,2.3-5.5c1.5-1.5,3.5-2.3,5.5-2.3h7.8V48c0,2-0.8,4.1-2.3,5.5c-1.5,1.5-3.5,2.3-5.5,2.3
	s-4.1-0.8-5.5-2.3C17.8,52.1,17,50.1,17,48z"/>
<path class="st0" d="M17,32.5c0-2,0.8-4.1,2.3-5.5c1.5-1.5,3.5-2.3,5.5-2.3h7.8v15.5h-7.8c-2,0-4.1-0.8-5.5-2.3
	C17.8,36.6,17,34.5,17,32.5z"/>
</svg>
