<?xml version="1.0" encoding="utf-8"?>
<!-- Generator: Adobe Illustrator 26.5.0, SVG Export Plug-In . SVG Version: 6.00 Build 0)  -->
<svg version="1.1" id="Camada_1" xmlns="http://www.w3.org/2000/svg" xmlns:xlink="http://www.w3.org/1999/xlink" x="0px" y="0px"
	 viewBox="0 0 40 40" style="enable-background:new 0 0 40 40;" xml:space="preserve">
<style type="text/css">
	.st0{fill:#03DAC6;}
</style>
<path class="st0" d="M6.3,26.1L9.6,24c0.6,1.2,1.2,2.2,2.6,2.2c1.3,0,2.2-0.5,2.2-2.7V9h4.1v14.6c0,4.4-2.5,6.4-6.1,6.4
	C9.1,30,7.2,28.2,6.3,26.1z M20.7,25.6l3.3-2c0.9,1.5,2,2.6,4,2.6c1.7,0,2.8-0.9,2.8-2.1c0-1.5-1.1-2-3-2.8l-1-0.5
	c-3-1.3-4.9-3-4.9-6.4c0-3.2,2.3-5.6,6-5.6c2.6,0,4.5,0.9,5.8,3.4l-3.2,2.1c-0.7-1.3-1.5-1.8-2.6-1.8c-1.2,0-2,0.8-2,1.8
	c0,1.3,0.8,1.8,2.5,2.6l1,0.5c3.5,1.6,5.4,3.1,5.4,6.7c0,3.8-2.9,5.9-6.8,5.9C24.4,30,21.9,28.1,20.7,25.6z"/>
</svg>
