<?xml version="1.0" encoding="utf-8"?>
<!-- Generator: Adobe Illustrator 26.5.0, SVG Export Plug-In . SVG Version: 6.00 Build 0)  -->
<svg version="1.1" id="Camada_1" xmlns="http://www.w3.org/2000/svg" xmlns:xlink="http://www.w3.org/1999/xlink" x="0px" y="0px"
	 viewBox="0 0 40 40" style="enable-background:new 0 0 40 40;" xml:space="preserve">
<style type="text/css">
	.st0{fill:#03DAC6;}
</style>
<path class="st0" d="M31.2,14.5l-1.1-0.4c0-0.2,0.1-0.5,0.1-0.8c0.9-4.1,0.2-7.5-1.6-8.6c-1.9-1-4.9,0-7.9,2.6
	c-0.2,0.2-0.6,0.5-0.9,0.8c-0.2-0.1-0.4-0.4-0.6-0.5c-3-2.8-6.1-3.9-8-2.8c-1.9,1-2.4,4.3-1.6,8.1c0.1,0.4,0.1,0.8,0.2,1.1
	c-0.5,0.1-0.9,0.2-1.2,0.4c-3.8,1.2-6.1,3.4-6.1,5.4c0,2.1,2.5,4.4,6.4,5.6c0.2,0.1,0.6,0.2,1,0.2c-0.1,0.4-0.2,0.9-0.2,1.2
	c-0.8,3.9-0.1,6.9,1.6,8c1.9,1.1,5,0,8.1-2.8c0.2-0.2,0.5-0.5,0.8-0.6c0.2,0.2,0.6,0.6,1,0.9c3,2.6,5.9,3.6,7.8,2.5s2.5-4.4,1.8-8.4
	c0-0.2-0.1-0.6-0.2-1c0.2-0.1,0.5-0.1,0.6-0.2c4-1.4,6.6-3.5,6.6-5.6C37.5,17.9,35,15.9,31.2,14.5z M21.9,8.6c2.6-2.3,5-3.1,6.1-2.5
	s1.6,3.4,0.9,7c0,0.2-0.1,0.5-0.1,0.8c-1.5-0.4-3.1-0.6-4.6-0.8c-0.9-1.2-1.9-2.5-3-3.8L21.9,8.6z M12.9,21.7c0.4,0.6,0.6,1.2,1,1.9
	s0.8,1.2,1.1,1.8c-1.1-0.1-2.1-0.2-3.2-0.5C12,23.9,12.4,22.9,12.9,21.7z M12.9,18.2c-0.5-1-0.8-2-1.1-3c1-0.2,2.1-0.4,3.1-0.5
	c-0.4,0.6-0.8,1.1-1.1,1.7C13.5,17,13.1,17.6,12.9,18.2z M13.6,20c0.5-1,1-1.9,1.5-2.9c0.5-0.9,1.1-1.9,1.8-2.7
	c1-0.1,2.1-0.1,3.2-0.1s2.1,0,3.2,0.1c0.6,0.9,1.1,1.7,1.6,2.7c0.5,0.9,1,1.9,1.5,2.9c-0.5,1-1,1.9-1.5,2.9
	c-0.5,0.9-1.1,1.9-1.6,2.8c-1,0.1-2.1,0.1-3.2,0.1s-2.1,0-3.1-0.1c-0.6-0.9-1.1-1.8-1.8-2.8S14.1,21,13.6,20z M26.1,23.6
	c0.4-0.6,0.8-1.2,1-1.9c0.5,1,0.9,2,1.1,3.1c-1.1,0.2-2.1,0.4-3.2,0.5C25.5,24.7,25.9,24.1,26.1,23.6z M27.1,18.2
	c-0.4-0.6-0.6-1.2-1-1.9c-0.4-0.6-0.8-1.1-1-1.7c1.1,0.1,2.1,0.4,3.2,0.5C28,16.2,27.6,17.2,27.1,18.2z M20,10.4
	c0.8,0.8,1.4,1.6,2,2.5c-1.4-0.1-2.8-0.1-4.1,0C18.6,12,19.4,11.1,20,10.4z M12,6.1c1.1-0.6,3.8,0.2,6.5,2.8L19,9.4
	c-1.1,1.1-2.1,2.4-3,3.8c-1.6,0.1-3.1,0.4-4.6,0.8c-0.1-0.4-0.1-0.8-0.2-1.1C10.4,9.4,10.9,6.7,12,6.1z M10.2,24.5
	c-0.2-0.1-0.6-0.1-0.9-0.2c-1.8-0.6-3.1-1.4-4.1-2.1C4.4,21.4,4,20.6,4,20c0-1.2,1.9-2.9,5.1-4c0.4-0.1,0.8-0.2,1.2-0.4
	c0.4,1.5,0.9,3,1.6,4.4C11.2,21.5,10.8,23,10.2,24.5z M18.4,31.4c-1.4,1.2-2.8,2-3.9,2.5c-1.1,0.4-1.9,0.4-2.5,0.1
	c-1.1-0.6-1.6-3.1-1-6.4c0.1-0.5,0.2-0.9,0.2-1.4c1.5,0.4,3.1,0.6,4.8,0.6c0.9,1.2,1.9,2.5,3,3.8C18.8,30.9,18.6,31.1,18.4,31.4z
	 M20,29.6c-0.8-0.8-1.4-1.6-2.1-2.5H22C21.5,28,20.8,28.9,20,29.6z M29.1,31.7c-0.2,1.1-0.6,1.9-1.1,2.1c-1.1,0.6-3.5-0.2-6-2.4
	c-0.2-0.2-0.6-0.5-0.9-0.8c1-1.1,2-2.4,2.9-3.8c1.6-0.1,3.1-0.4,4.8-0.8c0.1,0.2,0.1,0.6,0.2,0.9C29.4,28.9,29.4,30.5,29.1,31.7z
	 M30.4,24.2c-0.2,0-0.4,0.1-0.6,0.1c-0.5-1.5-1.1-3-1.8-4.5c0.6-1.4,1.2-2.9,1.8-4.4c0.4,0.1,0.8,0.2,1,0.4c3.2,1.1,5.2,2.7,5.2,4
	C36,21.4,33.9,23.1,30.4,24.2z"/>
<path class="st0" d="M20,23.1c0.6,0,1.2-0.1,1.8-0.5s0.9-0.9,1.1-1.4c0.2-0.6,0.2-1.2,0.1-1.9s-0.4-1.1-0.9-1.6
	c-0.4-0.5-1-0.8-1.6-0.9s-1.2,0-1.9,0.1c-0.6,0.2-1.1,0.6-1.4,1.1c-0.4,0.5-0.5,1.1-0.5,1.8c0,0.4,0.1,0.9,0.2,1.2s0.4,0.8,0.6,1
	s0.6,0.5,1,0.6C19.1,23,19.6,23.1,20,23.1z"/>
</svg>
