<?xml version="1.0" encoding="utf-8"?>
<!-- Generator: Adobe Illustrator 26.5.0, SVG Export Plug-In . SVG Version: 6.00 Build 0)  -->
<svg version="1.1" id="Camada_1" xmlns="http://www.w3.org/2000/svg" xmlns:xlink="http://www.w3.org/1999/xlink" x="0px" y="0px"
	 viewBox="0 0 50 40" style="enable-background:new 0 0 50 40;" xml:space="preserve">
<style type="text/css">
	.st0{fill:#FFFFFF;filter:url(#Adobe_OpacityMaskFilter);}
	.st1{mask:url(#mask0_1027_88_00000073679969981626159600000010793383597881871754_);}
	.st2{fill:#03DAC6;}
</style>
<defs>
	<filter id="Adobe_OpacityMaskFilter" filterUnits="userSpaceOnUse" x="0" y="1.2" width="50" height="37.5">
		<feColorMatrix  type="matrix" values="1 0 0 0 0  0 1 0 0 0  0 0 1 0 0  0 0 0 1 0"/>
	</filter>
</defs>
<mask maskUnits="userSpaceOnUse" x="0" y="1.2" width="50" height="37.5" id="mask0_1027_88_00000073679969981626159600000010793383597881871754_">
	<path class="st0" d="M50,1.2H0v37.5h50V1.2z"/>
</mask>
<g class="st1">
	<path class="st2" d="M43,22.8l0.2,0c1.3,0,2.5,0.3,3.6,0.8l0,0c1,0.5,1.8,1.2,2.4,2.1l0,0c0.5,0.8,0.8,1.7,0.7,2.6v0
		c0,0.4-0.1,0.9-0.3,1.2c-0.2,0.4-0.5,0.7-0.8,1l0,0c-0.3,0.3-0.8,0.6-1.2,0.8l0,0c-0.3,0.1-0.4,0-0.4-0.1c0-0.1,0.1-0.3,0.4-0.4
		c0.7-0.4,1.2-1.1,1.4-1.9l0,0c0-0.5-0.1-1.1-0.3-1.6l0,0c-0.3-0.7-0.8-1.3-1.5-1.7l0,0c-1-0.6-2.1-1-3.3-1.1l0,0
		c-1.7-0.2-3.3,0-4.9,0.6l0.1,0c0.2,0.5,0.4,1.1,0.4,1.8v0c0,0.6-0.2,1.2-0.5,1.8c-0.3,0.5-0.8,1-1.3,1.3l0,0
		c-0.5,0.3-1,0.6-1.6,0.9l-0.1,0c-0.4,0.2-0.9,0.3-1.4,0.3h0c-1-0.2-1.2-1.1-0.7-2.6c0.2-0.7,0.5-1.2,0.9-1.7l0,0
		c0.5-0.7,1.1-1.3,1.7-1.8l0,0l-0.2-0.2c-0.3-0.5-0.6-1.1-0.8-1.6l0-0.1c-0.2-0.5-0.3-1-0.4-1.5l-0.1-0.5l-0.8,1.5
		c-0.7,1.2-1.3,2.3-2,3.3l-0.2,0.4c0.3,0.6,0.5,1.4,0.5,2.1l0,0c0,0.6-0.1,1.2-0.3,1.8c-0.3,0.5-0.7,1-1.1,1.4l0,0
		c-0.5,0.3-1,0.5-1.5,0.8l-0.1,0c-0.6,0.3-1.2,0.4-1.9,0.4h0c-0.4,0-0.9-0.1-1.3-0.2l0,0c-0.2-0.1-0.3-0.3-0.3-0.5
		c0-0.2,0-0.4,0.1-0.6l0,0c0.6-0.9,1.2-1.6,1.9-2.4l0,0l1.7-2.2l-0.3-0.7c-0.3-0.5-0.5-1-0.7-1.6l0-0.1c-0.2-0.5-0.3-1-0.4-1.5
		l-0.1-0.5l-0.8,1.9c-0.6,1.5-1.2,2.7-1.7,3.7c-0.8,1.6-1.4,2.8-2,3.6L23.8,32c-0.6,1-1.2,1.5-1.8,1.5c-0.6,0-1-0.4-1.2-1.1
		c-0.2-0.6-0.2-1.2-0.2-1.8l0-0.2v0l0.2-1.1v0.1c-0.4,1-0.8,1.9-1.2,2.7c-0.3,0.5-0.5,1-0.9,1.4l0,0c-0.3,0.3-0.8,0.5-1.3,0.5h0
		c0,0-0.1,0-0.1,0c-0.4,0-0.7-0.1-1-0.4l0,0c-0.6-0.6-1-1.3-1.2-2l0,0c-0.3-0.9-0.4-1.8-0.4-2.7v0c0.1-1.2,0.4-2.4,0.7-3.5l0,0.1
		l-2.8,1.6v0.1c0.5,1.1,0.7,2.3,0.6,3.5l0,0c-0.1,1.5-0.6,3-1.4,4.3l0,0c-0.9,1.4-2.1,2.4-3.6,3.1l-0.1,0c-0.9,0.4-1.9,0.6-2.9,0.6
		c-0.7,0-1.3-0.1-1.9-0.3l0,0c-0.5-0.2-0.9-0.5-1.2-0.9l0,0c-0.4-0.6-0.6-1.2-0.6-1.9v0c-0.1-0.9,0.1-1.9,0.5-2.8l0,0
		c0.9-1.5,2.1-2.8,3.6-3.6l0,0c1.1-0.8,2.3-1.5,3.5-2l0.2-0.1l0.4-0.2c-0.5-0.4-1.3-1-2.6-1.9c-1.6-1.1-3.1-2.2-4.5-3.5l0,0
		c-1.3-1.1-2.3-2.7-2.7-4.4l0-0.1c-0.2-1.1,0-2.2,0.6-3.2l0,0c0.8-1.8,2.1-3.4,3.6-4.7l0,0c1.6-1.5,3.4-2.9,5.4-3.9l0.1-0.1
		c1.9-1.1,3.9-2,6-2.7L16,2.4c2.2-0.8,4.4-1.2,6.7-1.2h0c2-0.1,4,0.4,5.8,1.2l-0.1,0c1.4,0.6,2.5,1.8,2.9,3.3l0,0
		c0.4,1.5,0.2,3.1-0.4,4.5l0,0c-0.6,1.6-1.6,3-2.8,4.1l0,0c-1.2,1.2-2.7,2.1-4.2,2.8l-0.1,0c-1.8,0.8-3.7,1.2-5.7,1.2l0,0
		c-1.2,0.1-2.5,0-3.7-0.3l0.1,0c-0.7-0.2-1.4-0.6-2-1.1l0,0c-0.4-0.3-0.7-0.7-0.9-1.1l0,0c-0.2-0.4-0.2-0.7,0-0.7
		c0.1-0.1,0.2-0.1,0.3,0l0.4,0.4c0.4,0.4,1,0.7,1.5,0.9l0,0c0.8,0.3,1.7,0.4,2.7,0.4c0.3,0,0.6,0,0.9,0l0,0c2.4-0.3,4.7-1.1,6.8-2.5
		l-0.1,0c1.6-1,3-2.3,4-4l0-0.1c0.5-0.7,0.8-1.5,0.8-2.5c0-0.6-0.1-1.1-0.3-1.6l0,0c-0.3-0.5-0.7-0.9-1.1-1.2
		c-0.5-0.3-1-0.5-1.5-0.6l0,0c-1.7-0.4-3.5-0.4-5.2-0.1l0.1,0c-2.5,0.4-4.9,1.3-7.2,2.4l0.1-0.1c-6.4,3.2-9.7,6.5-9.9,9.9v0.1
		c0,1.4,0.5,2.6,1.4,3.5l0,0c1,1.1,2.1,2.1,3.3,2.9l0.1,0c1.1,0.8,2,1.6,3,2.6l0,0l0.2,0.2l5-2.7c0.6-0.8,1.2-1.5,2-2.1l0,0
		c0.6-0.5,1.4-0.9,2.3-0.9l0,0c0,0,0.1,0,0.1,0c0.6,0,1.1,0.4,1.3,0.9l0,0c0.2,0.5,0.3,1.1,0.2,1.7l0,0l-0.2,0.8l0.2-0.2
		c0.1-0.1,0.3-0.2,0.5-0.2c0.2,0,0.3,0,0.5,0.1l0,0c0.2,0,0.3,0.2,0.4,0.3c0.1,0.2,0.1,0.3,0.1,0.5l0,0L24,24.9
		c-0.5,1.9-0.8,3.2-0.9,4.1c-0.1,0.4-0.1,0.7-0.1,1.1v0c0,0.3,0.1,0.5,0.1,0.5c0.1,0,0.2-0.2,0.3-0.5l0.2-0.5c0.1,0,0.1,0,0,0.1
		l0.9-1.8c2-4.5,3.1-7,3.3-7.5l0.5-1.5c0.1-0.1,0.3-0.2,0.6-0.3c0.4-0.1,0.9-0.2,1.3-0.2h0c0.7,0,1.1,0.2,1.1,0.5l-0.1,0.4
		c-0.2,0.6-0.4,1.1-0.5,1.7l0,0.1c-0.1,0.5-0.1,1.1,0,1.6l0,0l0.1,0.3c0.2,0.7,0.4,1.2,0.7,1.7l0,0c0.6-1,1.2-2.1,1.8-3.2
		c0.5-0.8,0.9-1.6,1.2-2.5l0-0.1c0.1-0.6,0.3-1.1,0.4-1.6l0,0.1c0.1-0.2,0.3-0.3,0.7-0.4c0.4-0.1,0.8-0.1,1.2-0.1h0.1h0
		c0.7,0,1.1,0.2,1.2,0.5l-0.2,0.3c-0.2,0.5-0.3,1.2-0.5,1.8l0,0.1c0,0.5,0,1.1,0.1,1.6l0,0v0.3c0.2,0.7,0.4,1.3,0.8,1.8l0,0l0.2,0.5
		C39.9,23.1,41.4,22.8,43,22.8L43,22.8L43,22.8L43,22.8z M9.5,34.1c1.1-1.2,1.8-2.7,1.8-4.3c0-0.6-0.1-1.3-0.3-1.9l0,0l-1.2,0.8
		c-1.3,0.7-2.4,1.5-3.4,2.5l0,0c-0.8,0.7-1.3,1.6-1.6,2.6l0,0c-0.2,1-0.1,1.6,0.4,1.9c0.3,0.1,0.6,0.2,1,0.2c0.4,0,0.7-0.1,1.1-0.3
		l0,0C8.1,35.4,8.9,34.8,9.5,34.1L9.5,34.1L9.5,34.1z M20,26.9c0.3-0.7,0.5-1.5,0.9-2.4c0.4-1.2,0.6-2,0.4-2.2
		c-0.1-0.2-0.4-0.2-0.7-0.1c-0.4,0.2-0.8,0.5-1.1,0.9l0,0c-0.3,0.4-0.6,0.9-0.9,1.4l0,0.1c-0.3,0.5-0.6,1.1-0.8,1.7l0,0.1
		c-0.4,1-0.5,2.1-0.5,3.1v0c0.1,1,0.2,1.6,0.5,1.7c0.3,0.1,0.6-0.3,1-1.1c0.4-0.6,0.7-1.4,0.9-2.2l0-0.1
		C19.8,27.4,19.9,27.1,20,26.9L20,26.9z M28.7,31.1c0.5-0.2,1-0.6,1.3-1.1c0.3-0.5,0.6-1,0.6-1.6l0,0v-0.1l-0.9,1.1l-1.6,1.7
		c0,0,0,0,0,0c0,0,0,0,0,0c0,0,0,0.1,0,0.1C28.2,31.3,28.4,31.2,28.7,31.1L28.7,31.1z M35.4,29.6c0.6-0.2,1.1-0.5,1.5-1
		c0.4-0.5,0.6-1.1,0.6-1.7v-0.1v0c0-0.3-0.1-0.6-0.2-0.9l0,0c-0.6,0.5-1.1,1.2-1.5,1.9l0,0C35.3,28.9,35.2,29.4,35.4,29.6L35.4,29.6
		z"/>
</g>
</svg>
