<?xml version="1.0" encoding="utf-8"?>
<!-- Generator: Adobe Illustrator 26.5.0, SVG Export Plug-In . SVG Version: 6.00 Build 0)  -->
<svg version="1.1" id="Camada_1" xmlns="http://www.w3.org/2000/svg" xmlns:xlink="http://www.w3.org/1999/xlink" x="0px" y="0px"
	 viewBox="0 0 40 40" style="enable-background:new 0 0 40 40;" xml:space="preserve">
<style type="text/css">
	.st0{fill:#03DAC6;}
</style>
<path class="st0" d="M27,11.3l-0.1,0.7c-0.2,1.2-0.1,1.6,0.4,2l0.5,0.4l-0.5,2.4c-0.3,1.4-0.7,2.6-1,3c-0.2,0.3-0.5,0.8-0.5,1.1
	c-0.1,0.3-0.4,0.6-0.8,0.9c-0.4,0.2-1.2,0.8-1.8,1.3c-0.5,0.4-0.8,0.7-0.9,0.8l-0.5,0.4c-0.1,0.2-0.2,0.4-0.3,0.7c0,0.2,0,0.3,0,0.4
	c0.1,0.1,0.2,0.1,0.3,0.2c0.2,0,0.3,0,0.5,0c0.4,0,0.7-0.1,1.1-0.2c0.1,0,0.2-0.1,0.3-0.1c0.1-0.2,0.4-0.4,0.9-0.9
	c1.3-1.3,1.9-2,1.3-1.9c-0.2,0.1-0.1-0.1,0.2-0.5c0.7-0.7,1.1-1.7,2-5c0.7-2.6,0.7-2.6,1.2-2.6c0.2,0,0.9,0,0.9,0v-3.2h-1.5H27z
	 M33.4,16.5c-0.1,0-0.3,0.2-0.4,0.3c-0.2,0.3,0,0.5,2.9,2.3c1.7,1.1,3.1,2,3.1,2.1c0,0.1-1.4,1-3.1,2c-3.1,1.9-3.1,1.9-2.8,2.3
	c0.4,0.5,0,0.6,4-1.9l2.9-1.9v-1.4l-3.2-2C35,17.4,33.5,16.6,33.4,16.5z M6.6,16.7c-0.1,0-1.6,0.9-3.3,2l-3.3,2v1.4l3.2,2
	c1.8,1.1,3.3,2,3.4,2S6.8,26,7,25.8c0.2-0.3,0-0.5-2.9-2.4c-2.8-1.8-3.1-2-2.9-2.2c0.2-0.1,1.5-1,3-1.9c3.3-2,3.1-1.9,2.9-2.3
	C6.9,16.9,6.7,16.7,6.6,16.7L6.6,16.7z M21.1,16.8c-0.5,0-1.5,0.7-4.7,3.3c-0.1,0.3-0.1,0.5-0.1,0.7c0,0.1,0.1,0.2,0.2,0.2
	c0.1,0.1,0.2,0.1,0.4,0.1c0.3,0,0.6,0,0.9-0.1l0.2,0c0.1-0.1,0.1-0.2,0.2-0.2c0.2-0.1,1-0.8,1.8-1.6c1.4-1.4,1.8-2.1,1.2-2.3
	C21.2,16.8,21.1,16.8,21.1,16.8L21.1,16.8z M24.7,17.8c-0.4,0-1.2,0.5-2.5,1.6c-0.7,0.5-1.1,0.8-1.3,0.9L20,20.9
	c-0.3,0.6-0.4,1-0.3,1.2c0,0.1,0.1,0.1,0.1,0.1c0,0,0.1,0.1,0.1,0.1c0.1,0.1,0.3,0.1,0.4,0.1c0.3,0,0.7-0.1,1-0.1
	c0.2,0,0.3-0.1,0.5-0.2l0,0l0.1,0c0.2-0.2,0.5-0.6,1-1.1c1.5-1.5,2.3-2.5,2.1-2.9C25.1,17.9,24.9,17.8,24.7,17.8z M20.7,19.6
	c-0.1,0-0.4,0.2-0.9,0.7c-0.7,0.6-1.5,1-1.8,0.8c-0.1,0-0.1,0-0.2,0c-0.3,0.1-0.6,0.1-0.9,0.1c-0.1,0-0.3,0-0.4-0.1
	c-0.1-0.1-0.2-0.2-0.3-0.3c-0.1-0.1-0.1-0.3,0-0.6l-1.1,0.9l-2.5,2v3.3l8-6.3c0-0.1,0-0.1,0-0.2C20.8,19.7,20.8,19.6,20.7,19.6
	L20.7,19.6z M24.2,20.6c-0.1,0-0.3,0.2-0.6,0.5c-0.4,0.5-1.1,0.9-1.5,1l-0.1,0c-0.1,0-0.1,0-0.2,0.1c-0.1,0-0.2,0.1-0.4,0.1
	c-0.3,0.1-0.7,0.2-1,0.1c-0.2,0-0.3,0-0.5-0.1c-0.1-0.1-0.2-0.2-0.3-0.3c-0.1-0.2-0.1-0.6,0.2-1l-7.1,5.6v2h3.1l6.6-5.2
	c0.2-0.2,0.4-0.5,0.8-0.8c0.9-0.9,1.1-1.2,1.1-1.6C24.3,20.8,24.3,20.6,24.2,20.6L24.2,20.6z M25.7,23.9l-0.6,0.6
	c-0.3,0.3-0.9,0.7-1.3,0.8l-0.1,0l0,0l0,0c0,0,0,0,0,0c-0.2,0.1-0.3,0.1-0.5,0.2c-0.4,0.1-0.7,0.2-1.1,0.2c-0.2,0-0.3,0-0.5,0
	c-0.1,0-0.3-0.1-0.4-0.2c-0.1-0.1-0.1-0.3-0.1-0.5c0-0.1,0.1-0.3,0.2-0.4l-5.3,4.2h7.1l0.8-1c1.2-1.4,1.7-2.3,1.7-3.2V23.9z"/>
</svg>
