<?xml version="1.0" encoding="utf-8"?>
<!-- Generator: Adobe Illustrator 26.5.0, SVG Export Plug-In . SVG Version: 6.00 Build 0)  -->
<svg version="1.1" id="Camada_1" xmlns="http://www.w3.org/2000/svg" xmlns:xlink="http://www.w3.org/1999/xlink" x="0px" y="0px"
	 viewBox="0 0 40 40" style="enable-background:new 0 0 40 40;" xml:space="preserve">
<style type="text/css">
	.st0{clip-path:url(#SVGID_00000016051023087836660990000009501351034198646935_);}
	.st1{fill:#FFFFFF;filter:url(#Adobe_OpacityMaskFilter);}
	.st2{mask:url(#mask0_1027_79_00000144307916727362836440000016045355038291938720_);}
	.st3{fill:#03DAC6;}
</style>
<g>
	<defs>
		<rect id="SVGID_1_" y="0" width="40" height="32"/>
	</defs>
	<clipPath id="SVGID_00000031909482851676834090000018215408747315271867_">
		<use xlink:href="#SVGID_1_"  style="overflow:visible;"/>
	</clipPath>
	<g style="clip-path:url(#SVGID_00000031909482851676834090000018215408747315271867_);">
		<defs>
			<filter id="Adobe_OpacityMaskFilter" filterUnits="userSpaceOnUse" x="0" y="6.4" width="40" height="19.2">
				<feColorMatrix  type="matrix" values="1 0 0 0 0  0 1 0 0 0  0 0 1 0 0  0 0 0 1 0"/>
			</filter>
		</defs>
		
			<mask maskUnits="userSpaceOnUse" x="0" y="6.4" width="40" height="19.2" id="mask0_1027_79_00000144307916727362836440000016045355038291938720_">
			<path class="st1" d="M40,0H0v32h40V0z"/>
		</mask>
		<g class="st2">
			<path class="st3" d="M20,6.4c-5.3,0-8.7,2.1-10,6.4c2-2.1,4.3-2.9,7-2.4c1.5,0.3,2.6,1.2,3.8,2.2c2,1.6,4.2,3.4,9.2,3.4
				c5.3,0,8.7-2.1,10-6.4c-2,2.1-4.3,2.9-7,2.4c-1.5-0.3-2.6-1.2-3.8-2.2C27.2,8.2,25,6.4,20,6.4z M10,16c-5.3,0-8.7,2.1-10,6.4
				c2-2.1,4.3-2.9,7-2.4c1.5,0.3,2.6,1.2,3.8,2.2c2,1.6,4.2,3.4,9.2,3.4c5.3,0,8.7-2.1,10-6.4c-2,2.1-4.3,2.9-7,2.4
				c-1.5-0.3-2.6-1.2-3.8-2.2C17.2,17.8,15,16,10,16z"/>
		</g>
	</g>
</g>
</svg>
